<?xml version="1.0" standalone="no"?>
<!DOCTYPE svg PUBLIC "-//W3C//DTD SVG 20010904//EN"
 "http://www.w3.org/TR/2001/REC-SVG-20010904/DTD/svg10.dtd">
<svg version="1.0" xmlns="http://www.w3.org/2000/svg"
 width="3000.000000pt" height="3000.000000pt" viewBox="0 0 3000.000000 3000.000000"
 preserveAspectRatio="xMidYMid meet">

<g transform="translate(0.000000,3000.000000) scale(0.100000,-0.100000)"
fill="green" stroke="none">
<path d="M13721 27009 c-13 -38 -42 -247 -81 -589 -60 -525 -92 -752 -141
-1009 -62 -325 -145 -622 -239 -851 -28 -69 -53 -132 -57 -140 -4 -10 -3 -12
4 -5 30 28 127 277 182 465 13 41 29 95 36 120 8 25 17 63 21 85 4 22 11 48
16 58 5 10 14 46 19 80 6 34 16 82 24 107 14 44 24 102 50 270 7 47 17 117 23
155 22 139 42 291 48 360 3 39 10 95 15 125 5 30 16 126 24 214 8 87 18 162
20 166 3 5 10 56 15 113 6 57 19 146 30 197 23 107 23 110 11 110 -5 0 -14
-14 -20 -31z"/>
<path d="M13181 24373 c-10 -26 -10 -27 4 -9 8 11 15 23 15 28 0 15 -7 8 -19
-19z"/>
<path d="M13151 24313 c-10 -26 -10 -27 4 -9 8 11 15 23 15 28 0 15 -7 8 -19
-19z"/>
<path d="M7610 24181 c41 -26 315 -79 530 -102 78 -9 336 -13 810 -14 755 -1
787 -3 1049 -61 151 -34 260 -73 406 -144 509 -248 904 -716 1000 -1185 38
-188 27 -381 -34 -557 -16 -49 -28 -88 -25 -88 6 0 64 131 64 144 0 6 7 24 16
41 8 16 19 59 24 95 5 36 14 98 20 139 10 64 8 92 -10 204 -28 174 -50 241
-137 417 -76 156 -167 276 -332 440 -117 117 -172 163 -276 232 -141 93 -358
208 -393 208 -6 0 -23 7 -39 14 -42 22 -121 47 -180 56 -28 4 -66 13 -85 18
-38 12 -181 29 -348 43 -63 5 -403 8 -755 7 -469 -1 -659 2 -710 11 -38 7
-110 16 -159 21 -50 6 -110 16 -135 24 -26 8 -93 19 -151 25 -58 7 -118 14
-135 17 -22 4 -26 3 -15 -5z"/>
<path d="M14465 24049 c-55 -4 -127 -12 -160 -18 -33 -6 -80 -11 -105 -12 -25
0 -61 -7 -80 -15 l-35 -14 55 6 c30 3 102 12 160 19 291 39 634 42 948 9 472
-49 944 -195 1497 -463 328 -159 577 -301 1385 -788 883 -532 1329 -758 1880
-953 326 -115 840 -239 840 -202 0 14 -101 51 -159 58 -25 3 -66 12 -91 19
-25 8 -67 19 -95 25 -126 28 -161 37 -182 48 -12 7 -30 12 -40 12 -16 0 -192
56 -333 105 -234 83 -672 282 -920 418 -25 14 -65 35 -90 48 -25 12 -74 39
-110 59 -36 21 -85 48 -110 62 -25 14 -61 35 -80 47 -19 11 -46 26 -60 33 -14
7 -76 43 -139 80 -63 38 -116 68 -118 68 -2 0 -39 22 -81 49 -78 49 -274 167
-489 296 -65 39 -138 84 -163 100 -25 16 -67 41 -95 56 -27 14 -66 36 -85 48
-19 11 -42 24 -50 28 -8 3 -62 33 -118 65 -179 103 -560 291 -742 368 -266
111 -357 146 -470 180 -41 12 -88 26 -105 32 -16 6 -52 15 -80 20 -27 6 -66
16 -85 24 -19 7 -57 16 -85 19 -27 4 -70 13 -95 20 -53 16 -193 34 -345 45
-136 10 -634 10 -770 -1z"/>
<path d="M13983 23981 c-45 -8 -70 -21 -37 -21 10 1 46 7 79 14 63 15 34 19
-42 7z"/>
<path d="M13820 23940 c-20 -6 -21 -8 -5 -8 11 0 31 4 45 8 20 6 21 8 5 8 -11
0 -31 -4 -45 -8z"/>
<path d="M13665 23900 c-13 -5 -14 -9 -5 -9 8 0 24 4 35 9 13 5 14 9 5 9 -8 0
-24 -4 -35 -9z"/>
<path d="M14610 22689 c-1632 -80 -3172 -694 -4436 -1769 -184 -156 -602 -569
-758 -748 -996 -1147 -1612 -2534 -1785 -4022 -38 -330 -45 -469 -45 -870 0
-578 44 -1023 154 -1542 85 -401 247 -931 377 -1236 l18 -42 418 418 418 418
-70 209 c-498 1499 -480 3096 53 4563 788 2169 2601 3801 4831 4352 349 87
627 134 1030 177 241 25 1002 25 1245 0 91 -10 190 -20 220 -22 53 -4 53 -4
16 5 -64 17 -438 68 -616 85 -354 33 -717 41 -1070 24z"/>
<path d="M16348 22563 c6 -2 18 -2 25 0 6 3 1 5 -13 5 -14 0 -19 -2 -12 -5z"/>
<path d="M15335 22454 c-216 -13 -308 -21 -595 -54 -170 -19 -256 -31 -321
-46 -37 -8 -83 -14 -102 -14 -19 0 -54 -7 -77 -15 -24 -8 -68 -18 -99 -21 -31
-4 -64 -11 -73 -16 -10 -5 -44 -13 -75 -18 -32 -6 -80 -17 -108 -25 -27 -8
-90 -24 -140 -36 -101 -24 -123 -30 -320 -95 -275 -89 -408 -139 -605 -226
-182 -80 -283 -129 -277 -134 2 -2 51 18 108 45 469 221 1086 409 1679 511
920 158 1904 164 3195 19 149 -17 295 -32 325 -35 l55 -4 -66 24 c-99 35 -236
55 -624 86 -66 6 -160 15 -210 21 -325 38 -1264 57 -1670 33z"/>
<path d="M17918 22283 c7 -3 16 -2 19 1 4 3 -2 6 -13 5 -11 0 -14 -3 -6 -6z"/>
<path d="M12445 21714 c-121 -62 -220 -116 -230 -126 -8 -9 301 148 314 159
18 14 -26 -3 -84 -33z"/>
<path d="M12168 21564 c-38 -20 -36 -28 2 -9 17 9 30 18 30 20 0 7 -1 6 -32
-11z"/>
<path d="M12100 21525 c-14 -8 -35 -19 -47 -24 -11 -5 -25 -15 -29 -22 -7 -12
80 33 101 52 14 13 3 11 -25 -6z"/>
<path d="M11984 21454 c-18 -14 -18 -15 4 -4 12 6 22 13 22 15 0 8 -5 6 -26
-11z"/>
<path d="M11854 21374 c-18 -14 -18 -15 4 -4 12 6 22 13 22 15 0 8 -5 6 -26
-11z"/>
<path d="M11501 21060 c-18 -4 -40 -15 -49 -24 -15 -15 -8 -16 79 -16 112 0
188 -18 279 -66 237 -124 421 -402 477 -719 19 -111 12 -284 -17 -430 -23
-117 -23 -117 -5 -85 8 14 17 45 20 70 4 25 13 65 21 90 34 110 34 424 0 525
-8 22 -17 53 -21 70 -21 95 -170 342 -251 417 -46 42 -176 128 -194 128 -9 0
-21 5 -27 11 -29 29 -233 48 -312 29z"/>
<path d="M12237 19657 c-5 -21 -10 -46 -13 -55 -2 -9 3 -2 11 17 9 18 15 43
13 55 -3 15 -6 9 -11 -17z"/>
<path d="M12211 19564 c0 -11 3 -14 6 -6 3 7 2 16 -1 19 -3 4 -6 -2 -5 -13z"/>
<path d="M12196 19514 c-4 -14 -5 -29 -2 -31 3 -3 8 7 12 21 3 15 4 29 1 32
-2 3 -8 -7 -11 -22z"/>
<path d="M12171 19424 c0 -11 3 -14 6 -6 3 7 2 16 -1 19 -3 4 -6 -2 -5 -13z"/>
<path d="M12131 19280 c-75 -281 -91 -470 -41 -470 3 0 6 57 6 128 2 126 26
285 61 395 8 26 13 52 11 59 -3 7 -19 -44 -37 -112z"/>
<path d="M10996 15031 c-2166 -2172 -3954 -3971 -3973 -3997 -184 -257 -200
-597 -41 -869 53 -90 183 -220 273 -273 261 -153 594 -143 842 26 32 22 256
238 498 481 241 243 444 440 450 438 5 -2 52 -57 103 -123 269 -345 709 -806
1026 -1074 1144 -972 2495 -1562 3956 -1729 326 -37 479 -45 860 -45 496 1
836 30 1285 109 1185 210 2309 712 3255 1454 410 321 817 717 1144 1110 l78
94 -402 402 -403 403 -90 -112 c-575 -711 -1312 -1299 -2127 -1698 -1279 -625
-2737 -795 -4130 -482 -742 167 -1459 476 -2105 907 -572 382 -1100 883 -1543
1466 l-102 133 2541 2549 c1398 1402 2545 2549 2548 2549 4 0 1516 -1513 3361
-3362 1845 -1850 3380 -3385 3411 -3413 116 -102 261 -166 425 -187 159 -20
344 19 489 104 90 53 220 183 273 273 159 272 143 612 -41 869 -32 43 -7905
7946 -7917 7946 -3 0 -1777 -1777 -3944 -3949z"/>
<path d="M16635 13868 c57 -43 158 -143 215 -214 72 -90 149 -241 189 -369 39
-123 47 -139 56 -102 12 46 -15 128 -97 294 -44 89 -79 143 -128 200 -82 94
-159 161 -220 191 l-45 23 30 -23z"/>
<path d="M15172 13520 c-60 -40 -122 -101 -122 -120 0 -17 8 -12 67 48 32 31
74 69 93 84 53 41 30 33 -38 -12z"/>
<path d="M14545 13518 c128 -106 256 -246 312 -343 28 -48 63 -72 63 -43 0 29
-88 147 -170 228 -47 47 -121 109 -165 138 -46 30 -63 39 -40 20z"/>
<path d="M15364 13327 c-70 -50 -158 -133 -216 -205 -116 -144 -228 -334 -228
-385 0 -31 18 -45 26 -20 6 19 37 82 88 179 52 99 152 230 265 345 59 60 104
109 101 109 -3 -1 -19 -11 -36 -23z"/>
<path d="M13554 13286 c-89 -60 -160 -161 -205 -292 -21 -61 -24 -87 -24 -224
0 -168 8 -214 66 -360 87 -221 227 -376 578 -639 290 -217 405 -312 505 -415
87 -89 176 -208 212 -283 26 -55 34 -79 72 -215 17 -59 32 -76 32 -35 -1 12
-7 56 -14 98 -26 147 -119 291 -302 468 -68 67 -128 121 -133 121 -6 0 -44 28
-85 63 -41 34 -116 91 -168 127 -288 200 -544 453 -608 602 -6 13 -14 30 -19
38 -20 34 -49 107 -56 140 -4 19 -13 54 -21 78 -10 30 -14 92 -14 205 0 145 3
169 25 234 41 123 97 208 182 282 58 50 46 54 -23 7z"/>
<path d="M17100 12895 c0 -154 -4 -274 -9 -267 -10 16 -20 -7 -55 -135 -92
-328 -278 -582 -613 -836 -51 -38 -93 -71 -93 -74 0 -6 17 4 90 56 242 170
409 339 514 518 67 114 148 323 162 415 3 24 15 58 25 76 11 18 19 51 19 73 0
21 5 39 10 39 6 0 10 53 10 140 0 87 -4 140 -10 140 -5 0 -10 17 -10 38 0 20
-9 51 -20 67 l-20 30 0 -280z"/>
<path d="M16285 11560 c-16 -11 -25 -20 -20 -20 10 0 64 39 55 40 -3 0 -18 -9
-35 -20z"/>
<path d="M16174 11484 c-18 -14 -18 -15 4 -4 12 6 22 13 22 15 0 8 -5 6 -26
-11z"/>
<path d="M16090 11435 c-19 -14 -31 -25 -27 -25 9 0 87 41 87 46 0 12 -30 1
-60 -21z"/>
<path d="M15828 11273 c7 -3 16 -2 19 1 4 3 -2 6 -13 5 -11 0 -14 -3 -6 -6z"/>
<path d="M15430 11030 c-9 -6 -10 -10 -3 -10 6 0 15 5 18 10 8 12 4 12 -15 0z"/>
<path d="M15290 10934 c-189 -141 -340 -330 -387 -483 -7 -24 -11 -46 -9 -48
5 -5 89 124 112 172 49 101 200 278 324 378 69 55 44 44 -40 -19z"/>
<path d="M1820 7549 c-30 -5 -88 -25 -128 -44 -128 -61 -213 -163 -259 -310
-17 -57 -18 -135 -18 -1640 0 -1505 1 -1583 18 -1640 62 -201 209 -327 415
-357 236 -33 456 70 547 256 63 127 65 150 65 759 l0 547 410 0 410 0 0 -547
c0 -609 2 -632 65 -759 172 -349 748 -349 920 0 68 137 65 50 65 1741 0 1691
3 1604 -65 1741 -172 349 -748 349 -920 0 -62 -126 -65 -151 -65 -743 l0 -533
-410 0 -410 0 0 533 c0 592 -3 617 -65 743 -95 194 -323 294 -575 253z"/>
<path d="M6040 6569 c-558 -63 -942 -371 -1108 -889 -119 -372 -119 -898 0
-1270 147 -459 472 -760 928 -858 275 -60 587 -51 845 23 490 142 793 510 896
1091 20 112 23 162 23 379 0 217 -3 267 -23 379 -44 249 -126 464 -243 633
-180 263 -474 439 -833 499 -113 18 -373 26 -485 13z m-308 -727 c94 -49 125
-70 206 -142 66 -58 122 -132 122 -160 0 -39 -26 -45 -113 -27 -111 23 -220
22 -272 -3 -22 -11 -46 -19 -54 -20 -44 -1 -163 -104 -218 -188 -38 -59 -73
-169 -73 -231 0 -22 -6 -44 -15 -51 -25 -21 -57 10 -94 91 -18 41 -40 88 -47
104 -24 50 -45 137 -51 202 -14 164 107 345 302 452 35 20 51 22 135 18 87 -4
101 -8 172 -45z m1255 2 c226 -46 372 -218 373 -438 0 -83 -11 -124 -82 -291
-26 -61 -39 -81 -55 -83 -29 -4 -50 30 -58 98 -14 116 -100 238 -227 323 -62
41 -115 56 -225 64 -54 4 -84 1 -113 -11 -22 -9 -54 -16 -70 -16 -16 0 -49
-10 -74 -21 -24 -12 -51 -19 -60 -16 -23 9 -20 50 7 79 12 14 42 49 66 78 55
66 173 160 243 194 42 20 139 48 191 55 4 1 42 -6 84 -15z m-942 -503 c52 -25
89 -54 143 -109 l73 -75 29 34 c16 19 29 37 30 41 0 11 131 108 144 108 6 0
28 9 49 20 29 16 56 20 123 20 88 0 90 -1 214 -59 54 -25 141 -119 178 -191
31 -63 32 -68 32 -197 0 -123 -2 -136 -30 -206 -87 -218 -182 -329 -524 -612
-93 -77 -187 -157 -208 -178 -32 -32 -41 -36 -58 -27 -11 6 -20 15 -20 20 0 5
-24 29 -54 52 -85 68 -356 300 -426 364 -92 86 -250 311 -250 357 0 8 -9 34
-20 58 -16 36 -20 66 -20 172 0 123 1 130 31 190 60 118 116 170 246 227 62
27 76 30 158 27 78 -2 99 -7 160 -36z"/>
<path d="M8480 6574 c-14 -3 -47 -12 -75 -21 -148 -47 -256 -169 -285 -323
-14 -73 -13 -2202 1 -2290 39 -246 261 -410 522 -386 197 18 344 126 408 298
l24 63 3 826 3 826 67 31 c184 84 343 102 477 56 65 -23 145 -102 170 -169 18
-47 20 -95 25 -810 l6 -760 23 -63 c63 -172 211 -280 408 -298 261 -24 483
140 523 386 6 41 10 348 9 845 l0 780 71 37 c101 52 194 73 320 73 91 -1 112
-4 160 -26 70 -32 116 -79 149 -149 l26 -55 6 -760 c4 -588 8 -769 18 -800 73
-222 276 -353 514 -331 200 18 348 129 409 303 l23 68 0 860 c0 773 -2 869
-17 951 -87 459 -333 727 -748 817 -74 16 -131 20 -260 20 -146 0 -176 -3
-265 -26 -180 -48 -361 -151 -531 -303 l-72 -64 -15 24 c-33 49 -133 149 -193
192 -139 99 -303 156 -511 176 -291 28 -559 -47 -808 -227 -49 -36 -92 -65
-95 -65 -3 0 -18 24 -35 52 -48 83 -143 173 -218 209 -66 30 -172 45 -237 33z"/>
<path d="M14163 6570 c-632 -67 -1024 -446 -1143 -1105 -45 -249 -45 -582 0
-835 110 -609 486 -997 1060 -1094 365 -61 753 -8 1049 144 129 66 200 130
243 218 31 62 33 74 33 167 0 120 -20 171 -100 250 -130 131 -279 145 -557 50
-155 -53 -252 -70 -361 -63 -153 10 -261 67 -334 176 -46 68 -71 137 -80 220
l-6 52 29 0 c16 0 331 22 699 49 499 37 682 54 717 66 136 48 207 207 208 465
1 366 -115 681 -330 899 -172 174 -382 278 -660 327 -104 18 -356 26 -467 14z
m379 -805 c114 -41 188 -151 191 -285 l2 -64 -340 -37 c-187 -20 -362 -39
-389 -43 l-48 -5 7 56 c25 204 120 339 271 387 64 21 239 15 306 -9z"/>
</g>
</svg>
