<svg width="424" height="364" viewBox="0 0 424 364" fill="none" xmlns="http://www.w3.org/2000/svg">
<path opacity="0.5" d="M348.101 221.726C230.361 284.945 140.473 235.274 153.132 188.181C158.964 166.487 175.351 90.9996 215.169 53.3545C261.873 9.19899 368.155 -3.59714 396.212 38.5175C426.036 83.2864 421.517 182.306 348.101 221.726Z" fill="#0071DC"/>
<path opacity="0.5" d="M351.148 230.624C220.911 299.143 121.484 245.307 135.488 194.268C141.938 170.756 160.064 88.9421 204.107 48.1419C255.571 0.467887 368.747 -18.2792 402.262 31.0127C435.255 79.5337 432.356 187.9 351.148 230.624Z" stroke="#0071DC" stroke-width="3"/>
<path d="M227.212 21.2236C116.021 -15.6923 30.8075 96.2675 2.09961 156.862C56.1311 170.146 169.726 198.252 191.852 204.405C196.613 97.8518 231.88 66.3195 248.918 63.8724C243.783 53.6181 232.253 30.7319 227.212 21.2236Z" fill="#9567F9"/>
<path d="M89.3114 71.2148C65.7706 86.8541 40.2678 125.952 30.4591 143.546L172.882 190.073L189.753 120.869C161.373 107.316 101.553 78.4089 89.3114 71.2148Z" fill="white" fill-opacity="0.88"/>
<path d="M148.74 25.5977C137.7 29.9049 113.427 49.6818 102.67 59.0321L190.665 112.553L217.4 76.2585C200.669 63.0387 163.513 34.3988 148.74 25.5977Z" fill="white" fill-opacity="0.88"/>
<path d="M219.318 20.5259C219.318 20.5259 196.404 17.3783 181 20.5259L219.318 74.3617L241.567 59.1562L219.318 20.5259Z" fill="white" fill-opacity="0.88"/>
<path d="M191.853 204.405C196.614 97.8526 231.881 66.3202 248.919 63.8732V69.8161C202.986 93.5877 192.903 175.973 193.604 214.194L0 168.049L2.10058 156.863C56.1321 170.147 169.727 198.253 191.853 204.405Z" fill="#7644E1"/>
<path d="M158.943 167.043L161.332 167.851L160.904 169.112L158.516 168.304L158.943 167.043ZM172.111 171.668L174.289 172.405L173.861 173.666L171.683 172.929L172.111 171.668ZM169.757 169.881C169.45 169.777 169.169 169.745 168.915 169.785C168.662 169.82 168.41 169.933 168.159 170.124C167.909 170.31 167.636 170.584 167.339 170.946C166.831 171.555 166.336 172.075 165.852 172.507C165.365 172.931 164.845 173.214 164.291 173.357C163.732 173.498 163.102 173.451 162.4 173.213C161.731 172.987 161.205 172.632 160.821 172.147C160.438 171.664 160.209 171.096 160.135 170.447C160.057 169.789 160.145 169.086 160.399 168.337C160.593 167.766 160.855 167.278 161.185 166.873C161.51 166.466 161.893 166.151 162.336 165.928C162.773 165.704 163.257 165.582 163.786 165.563C164.316 165.544 164.883 165.637 165.488 165.841L164.701 168.161C164.377 168.052 164.079 167.99 163.807 167.976C163.535 167.962 163.292 167.994 163.079 168.072C162.868 168.145 162.691 168.259 162.548 168.415C162.399 168.569 162.287 168.757 162.213 168.978C162.101 169.306 162.075 169.598 162.133 169.852C162.191 170.106 162.314 170.319 162.502 170.49C162.687 170.655 162.92 170.785 163.201 170.88C163.476 170.973 163.733 171.006 163.971 170.978C164.211 170.945 164.459 170.834 164.715 170.644C164.967 170.453 165.255 170.172 165.579 169.801C166.087 169.192 166.587 168.676 167.079 168.254C167.571 167.831 168.094 167.549 168.648 167.406C169.202 167.263 169.83 167.31 170.531 167.547C171.227 167.783 171.766 168.145 172.148 168.635C172.524 169.122 172.742 169.701 172.804 170.371C172.86 171.038 172.758 171.755 172.499 172.52C172.331 173.016 172.099 173.487 171.803 173.934C171.501 174.379 171.135 174.75 170.702 175.049C170.27 175.347 169.769 175.532 169.197 175.603C168.62 175.672 167.97 175.584 167.247 175.339L168.037 173.011C168.431 173.145 168.777 173.205 169.076 173.192C169.37 173.177 169.624 173.113 169.837 172.999C170.046 172.877 170.22 172.72 170.358 172.526C170.496 172.332 170.602 172.125 170.677 171.904C170.794 171.559 170.828 171.255 170.779 170.992C170.732 170.724 170.619 170.497 170.442 170.311C170.261 170.117 170.033 169.974 169.757 169.881Z" fill="#0071DC"/>
<path d="M184.252 96.9355L185.73 98.3063L185.004 99.0865L183.526 97.7158L184.252 96.9355ZM192.345 104.619L193.692 105.869L192.966 106.649L191.619 105.4L192.345 104.619ZM191.213 102.545C191.023 102.368 190.828 102.253 190.63 102.199C190.434 102.142 190.213 102.142 189.967 102.199C189.724 102.253 189.434 102.364 189.099 102.531C188.528 102.809 187.996 103.027 187.502 103.184C187.007 103.334 186.534 103.37 186.083 103.294C185.629 103.214 185.184 102.972 184.75 102.57C184.336 102.186 184.069 101.754 183.948 101.275C183.827 100.797 183.846 100.308 184.005 99.8095C184.164 99.3043 184.459 98.8201 184.89 98.3566C185.219 98.0032 185.57 97.7326 185.944 97.5449C186.314 97.354 186.698 97.2498 187.093 97.232C187.486 97.211 187.879 97.2802 188.272 97.44C188.665 97.5994 189.048 97.8525 189.423 98.1996L188.087 99.635C187.886 99.4494 187.689 99.3068 187.495 99.2075C187.301 99.1086 187.114 99.0526 186.933 99.04C186.755 99.024 186.588 99.0495 186.433 99.1162C186.274 99.1802 186.13 99.2802 186.003 99.4172C185.814 99.6207 185.699 99.8245 185.658 100.029C185.617 100.233 185.637 100.429 185.718 100.616C185.799 100.797 185.927 100.968 186.1 101.129C186.27 101.286 186.447 101.394 186.63 101.452C186.816 101.507 187.034 101.507 187.283 101.452C187.529 101.395 187.832 101.284 188.19 101.119C188.76 100.841 189.295 100.628 189.792 100.481C190.29 100.333 190.765 100.299 191.216 100.375C191.667 100.452 192.11 100.692 192.544 101.095C192.974 101.494 193.249 101.935 193.367 102.417C193.481 102.896 193.451 103.39 193.276 103.899C193.098 104.405 192.789 104.894 192.348 105.368C192.063 105.675 191.739 105.943 191.376 106.172C191.01 106.398 190.621 106.549 190.208 106.625C189.794 106.702 189.367 106.672 188.927 106.537C188.483 106.399 188.037 106.122 187.59 105.707L188.93 104.266C189.174 104.492 189.407 104.65 189.63 104.738C189.849 104.824 190.055 104.86 190.248 104.846C190.441 104.826 190.62 104.768 190.784 104.672C190.948 104.575 191.094 104.459 191.221 104.322C191.419 104.109 191.544 103.898 191.594 103.69C191.648 103.479 191.64 103.276 191.572 103.082C191.503 102.882 191.384 102.703 191.213 102.545Z" fill="#0071DC"/>
<path d="M218.974 65.6973L219.556 66.5202L219.12 66.8271L218.538 66.0042L218.974 65.6973ZM222.139 70.2904L222.669 71.0406L222.233 71.3479L221.703 70.5974L222.139 70.2904ZM221.8 69.1588C221.725 69.0529 221.642 68.9764 221.55 68.9295C221.461 68.8813 221.352 68.8585 221.226 68.8613C221.101 68.8627 220.948 68.8869 220.767 68.9341C220.459 69.0117 220.176 69.063 219.918 69.0889C219.661 69.1113 219.426 69.0805 219.213 68.9966C218.999 68.9106 218.807 68.7467 218.636 68.5051C218.473 68.2744 218.386 68.0356 218.377 67.7892C218.367 67.5424 218.427 67.3053 218.556 67.0778C218.686 66.847 218.881 66.6404 219.14 66.4583C219.337 66.3192 219.537 66.223 219.739 66.1696C219.94 66.1147 220.138 66.1031 220.334 66.1353C220.528 66.1654 220.713 66.2398 220.889 66.3583C221.065 66.4768 221.226 66.6401 221.373 66.8484L220.571 67.4134C220.493 67.3015 220.411 67.2117 220.326 67.1431C220.242 67.0746 220.156 67.0278 220.068 67.003C219.983 66.9767 219.899 66.9722 219.816 66.989C219.731 67.0037 219.651 67.0379 219.575 67.0918C219.461 67.1718 219.384 67.2599 219.343 67.3557C219.301 67.4515 219.291 67.549 219.311 67.649C219.332 67.7458 219.377 67.8423 219.445 67.9391C219.512 68.0339 219.587 68.1048 219.671 68.152C219.756 68.1978 219.862 68.2202 219.99 68.2195C220.117 68.2167 220.276 68.1936 220.468 68.1499C220.776 68.0723 221.059 68.0234 221.318 68.0028C221.577 67.9821 221.813 68.0136 222.026 68.0979C222.238 68.1818 222.43 68.3447 222.601 68.5866C222.77 68.8264 222.859 69.0704 222.867 69.3182C222.873 69.5644 222.807 69.8031 222.67 70.0338C222.53 70.2632 222.328 70.4708 222.064 70.6572C221.892 70.7778 221.706 70.8753 221.505 70.9501C221.303 71.0232 221.097 71.0567 220.886 71.0515C220.676 71.0462 220.471 70.9879 220.269 70.8763C220.066 70.7631 219.877 70.5816 219.701 70.3324L220.505 69.7657C220.601 69.9017 220.699 70.0027 220.799 70.0688C220.897 70.1331 220.994 70.1719 221.09 70.1852C221.187 70.1954 221.28 70.1852 221.37 70.1552C221.46 70.1251 221.544 70.0831 221.62 70.0293C221.739 69.9454 221.822 69.8552 221.868 69.7584C221.916 69.6605 221.934 69.5609 221.92 69.4588C221.907 69.3536 221.867 69.2536 221.8 69.1588Z" fill="#0071DC"/>
<path d="M165.639 126.187L164.135 125.637L148.873 167.249L150.377 167.799L165.639 126.187Z" fill="#0071DC"/>
<path d="M200.009 69.9654L199.052 69.123L175.704 95.5689L176.66 96.4112L200.009 69.9654Z" fill="#0071DC"/>
<path d="M235.166 51.7724L234.599 50.8691L214.563 63.4069L215.13 64.3101L235.166 51.7724Z" fill="#0071DC"/>
<path d="M168.788 134.07L167.376 133.533L153.589 169.721L155.001 170.257L168.788 134.07Z" fill="#0071DC"/>
<path d="M201.759 75.8594L200.838 75.0283L179.352 98.7614L180.273 99.5925L201.759 75.8594Z" fill="#0071DC"/>
<path d="M230.795 57.6237L230.145 56.6455L216.399 65.7593L217.049 66.7375L230.795 57.6237Z" fill="#0071DC"/>
<path d="M124.191 48.9689C140.338 47.2822 132.647 39.8018 135.021 36.2207C132.997 38.6035 130.179 41.9203 130.354 43.7759C128.434 44.1293 125.445 47.3853 124.191 48.9689Z" fill="#0666C1"/>
<path d="M123.56 53.1427L124.191 48.9655C138.57 46.9757 132.647 39.7981 135.021 36.2169C135.513 36.0191 137.172 35.7446 138.741 35.271L146.826 33.7559C147.362 39.7033 153.481 38.6074 151.384 43.8952C151.085 44.6506 146.416 43.2051 146.416 43.2051C146.416 43.2051 149.534 50.3013 156.004 53.58C162.474 56.8587 170.982 64.8324 189.258 71.0927C189.072 75.0322 187.171 75.2664 184.704 76.4543C184.028 86.9058 166.27 76.987 165.951 85.9465C165.705 88.8113 164.187 90.5987 162.105 90.4743C154.833 86.1583 145.557 67.8818 144.466 67.1627C143.375 66.4436 136.246 62.0441 132.347 59.7662C131.62 55.258 126.391 53.8971 123.56 53.1427Z" fill="#0071DC"/>
<path d="M123.56 53.1433L124.191 48.9661C132.216 49.9446 148.198 55.8861 149.423 48.0068C150.99 49.9865 152.835 51.7407 156.004 53.5809C141.083 54.4566 145.459 68.2547 132.347 59.7668C131.62 55.2589 126.39 53.8977 123.56 53.1433Z" fill="#0666C1"/>
<path d="M184.666 76.2588L158.771 58.9072C167.075 63.4875 180.976 73.5589 187.923 73.9473C188.192 73.9624 188.356 74.2466 188.177 74.4476C187.35 75.3761 185.795 76.0578 184.946 76.3049C184.85 76.3325 184.748 76.3144 184.666 76.2588Z" fill="#2B6FD9"/>
<path d="M193.556 28.2892L196.163 25.3108C208.523 32.6153 209.111 32.057 212.874 20.876C213.38 20.9141 214.951 21.4014 216.511 21.6667C216.324 29.2723 219.576 36.3964 222.05 35.1921C222.05 35.1921 225.204 44.4732 231.459 49.0223C230.875 57.4846 221.146 50.9083 211.475 58.3037C210.92 55.2323 210.535 53.1372 210.349 52.8425C209.629 51.6994 206.472 47.8991 203.795 44.0792C205.148 38.5107 196.688 30.8202 193.556 28.2892Z" fill="#FFB700"/>
<path d="M213.646 37.6192L214.57 36.3513M208.469 31.1436C209.349 32.0032 210.6 32.6828 211.728 33.9965L208.469 31.1436ZM221.746 55.0561C218.894 53.4067 214.746 44.9112 214.243 40.5998C214.108 39.45 213.903 38.467 213.646 37.6192L221.746 55.0561ZM211.728 33.9965L212.275 32.5618L211.728 33.9965ZM211.728 33.9965C212.146 34.4831 212.547 35.0571 212.906 35.7595L211.728 33.9965ZM212.906 35.7595L213.505 34.5335L212.906 35.7595ZM212.906 35.7595C213.181 36.2978 213.431 36.9113 213.646 37.6192L212.906 35.7595Z" stroke="white"/>
<path d="M212.873 20.877C209.111 32.058 208.523 32.6142 196.163 25.31C199.034 25.897 208.523 27.7592 212.873 20.877Z" fill="#EBA900"/>
<path d="M58.7443 123.967L58.5801 117.312C77.5277 114.291 74.236 100.019 70.6948 92.6619C71.3421 92.1218 73.6241 90.8958 75.7278 89.4111C81.1316 98.9198 88.1128 100.325 93.1612 99.9556L104.836 108.821C119.107 111.431 142.1 112.218 156.403 119.227C157.138 125.304 154.505 126.586 151.308 129.594C151.077 144.044 133.049 146.358 134.87 160.128C135.248 164.602 133.549 168.057 130.567 168.883C119.166 165.868 93.6563 135.644 91.9282 135.083C90.1998 134.522 83.5262 133.538 77.4233 131.977C74.9534 123.606 64.4487 123.427 58.7443 123.967Z" fill="#9567F9"/>
<path d="M58.7421 118.266C66.5706 122.103 76.3169 111.541 83.0066 116.076C92.9959 122.849 98.5614 109.931 102.988 113.039" stroke="#FDD333"/>
<path d="M104.838 108.82C102.881 117.027 95.4179 129.748 91.9309 135.082C91.6792 135 91.3228 134.91 90.8789 134.81C94.6621 128.706 102.577 114.833 103.975 108.164L104.838 108.82Z" fill="#FDD333"/>
<path d="M103.258 112.329C104.692 110.877 108.136 108.362 110.436 109.918C112.737 111.475 115.281 110.388 116.265 109.651M103.258 112.329C102.064 113.356 99.3481 115.075 98.0349 113.742C96.3933 112.075 101.704 111.547 103.258 112.329ZM103.258 112.329C102.677 113.83 101.977 116.964 103.818 117.495C106.119 118.159 104.457 114.04 103.258 112.329ZM103.258 112.329C104.84 111.919 108.974 111.662 112.847 113.919C116.72 116.175 118.311 116.112 118.622 115.798L103.258 112.329Z" stroke="#7644E1"/>
<path d="M151.37 129.073L110.851 114.057C123.822 116.979 150.431 122.915 155.717 123.87C155.922 123.908 156.044 124.112 155.969 124.306C155.202 126.302 152.912 128.211 151.68 129.038C151.589 129.1 151.473 129.111 151.37 129.073Z" fill="#7644E1"/>
<path d="M124.072 148.246C119.571 147.201 104.413 128.907 104.413 128.907C104.413 128.907 118.684 142.946 124.494 145.793C129.833 148.409 139.663 147.125 139.663 147.125C139.663 147.125 130.018 149.626 124.072 148.246Z" fill="#7644E1"/>
<path d="M91.928 135.084C91.9567 135.093 91.992 135.111 92.0337 135.136C101.723 139.977 128.626 165.869 134.869 160.129C135.248 164.602 133.549 168.058 130.567 168.883C119.356 165.919 94.5012 136.643 92.0337 135.136C91.9983 135.119 91.963 135.101 91.928 135.084Z" fill="#7644E1"/>
<path d="M187.399 77.6286C188.908 54.7756 171.884 42.8412 164.216 43.6411L164.112 42.9499C177.037 33.5818 196.538 61.9358 190.86 77.108C189.845 78.2033 188.84 79.6743 187.399 77.6286Z" fill="#292561"/>
<path d="M191.837 76.8433C190.996 75.4951 189.219 75.0831 187.869 75.9232C186.518 76.7633 186.106 78.5373 186.947 79.8856L203.469 106.362C204.31 107.71 206.087 108.122 207.437 107.282C208.787 106.442 209.2 104.668 208.359 103.32L191.837 76.8433Z" fill="#7C3A3A"/>
<path d="M189.302 77.3437C170.032 72.8176 162.826 49.6847 166.331 42.3756L165.786 41.9365C154.705 46.3105 170.496 81.7638 187.052 79.7184C188.512 79.3971 190.343 79.6191 189.302 77.3437Z" fill="#7C3A3A"/>
<path d="M305.285 193.568C320.105 194.151 353.598 196.05 378.805 198.288C366.377 210.174 338.894 232.722 295.482 243.559C299.61 222.587 303.405 202.227 305.285 193.568Z" fill="#FFB700"/>
<path d="M334.037 57.0204C320.246 54.8355 322.819 31.1093 323.688 23.9785C312.653 30.507 322.364 43.2912 317.361 49.9274C299.247 73.957 301.943 79.7276 313.573 87.6564C333.441 101.203 333.434 60.8186 334.037 57.0204Z" fill="#7C3A3A"/>
<path d="M360.073 71.9132C355.683 71.1315 347.501 58.0792 344.231 51.5566C341.536 52.6711 335.297 55.0095 331.912 55.4468C331.817 63.7085 326.776 72.8714 322.445 73.7943C314.659 85.1557 362.303 83.9511 360.073 71.9132Z" fill="#FECFC3"/>
<path d="M322.445 73.7953C314.659 85.1567 362.303 83.9524 360.073 71.9145C359.797 71.8649 359.503 71.7667 359.198 71.624C342.218 82.0517 321.913 78.3811 323.838 73.236C323.369 73.5076 322.904 73.6977 322.445 73.7953Z" fill="#E9B0A1"/>
<path d="M344.237 51.5586C341.538 52.6731 335.299 55.0118 331.917 55.4491C331.885 58.1003 331.588 58.6985 331.073 61.3941C339.738 59.2061 344.597 53.8047 344.237 51.5586Z" fill="#E9B0A1"/>
<path d="M346.249 53.8433C323.672 67.0628 320.822 41.538 323.693 23.9795L350.363 27.9612C351.494 35.6863 353.006 49.8874 346.249 53.8433Z" fill="#FECFC3"/>
<path d="M338.964 29.2109C333.776 29.4189 325.8 27.5843 323.696 23.9657C327.281 16.0201 332.991 10.5613 350.535 17.2104C368.075 23.8595 358.419 60.2524 382.211 61.7004C406.004 63.148 408.213 88.2642 395.953 97.1569C367.591 117.722 364.665 74.0113 359.791 71.7827C343.97 64.5467 345.154 55.5705 345.77 48.5837C345.857 47.5933 350.535 47.4654 350.16 40.2727C350.006 37.3272 345.038 40.9212 345.262 39.4967C345.49 38.0721 344.149 29.0032 338.964 29.2109Z" fill="#7C3A3A"/>
<path d="M382.75 56.9066C395.672 57.0887 403.893 67.7684 406.389 73.0856C391.986 52.154 382.537 63.091 373.725 55.4771C363.558 46.6921 359.774 26.8459 353.038 30.4414C351.865 27.9254 356.787 25.9985 355.502 24.6152C364.528 26.0447 366.597 56.679 382.75 56.9066Z" fill="#7C3A3A"/>
<path d="M353.341 7.23365C358.666 8.07719 362.276 13.1986 361.407 18.6727C361.096 20.6157 360.266 22.3419 359.083 23.7228C355.603 14.9993 346.742 13.187 342.747 13.3716C344.445 9.15915 348.783 6.51141 353.341 7.23365Z" fill="#7C3A3A"/>
<path d="M251.544 138.16C253.785 135.084 268.057 118.234 271.324 111.941L293.906 129.945C288.654 140.083 265.958 167.915 256.62 171.895C242.266 178.012 211.495 114.388 208.345 114.388C202.463 115.227 198.192 111.359 196.791 109.319C195.099 108.795 191.925 107.257 192.765 105.299C191.365 105.299 187.864 102.328 190.314 99.3563C188.563 99.5311 185.938 97.6083 187.864 94.4621C185.413 94.6369 181.037 90.0923 182.262 89.0436C183.487 87.9948 187.163 84.6738 190.314 85.8973C192.835 86.8762 197.55 89.1019 199.592 90.0923C199.942 88.8107 200.432 85.9323 199.592 84.6738C195.216 79.9544 193.816 71.2148 196.791 71.2148C199.767 71.2148 200.467 76.2838 204.844 80.8284C219.898 91.3159 212.196 97.2588 215.697 101.104C223.224 117.709 248.743 142.005 251.544 138.16Z" fill="#FECFC3"/>
<path d="M271.325 111.94L293.907 129.944C291.407 134.77 284.954 143.605 277.872 151.968C277.241 146.724 280.603 138.159 278.502 137.285C276.822 136.586 268.249 126.972 264.173 122.253C267.298 118.184 270.093 114.312 271.325 111.94Z" fill="#E9B0A1"/>
<path d="M262.572 112.815C277.276 92.5392 292.214 83.9164 296.882 81.7021C328.04 94.6367 312.286 128.546 301.783 141.131C284.628 139.383 265.723 124.701 262.572 112.815Z" fill="#0071DC"/>
<path d="M301.783 141.13C284.628 139.383 265.723 124.7 262.572 112.814C263.178 111.979 263.784 111.164 264.39 110.367C267.675 118.757 280.186 136.096 303.943 138.334C303.212 139.353 302.487 140.289 301.783 141.13Z" fill="#0666C1"/>
<path d="M312.772 95.6856C320.026 111.172 309.491 131.895 301.782 141.131C295.672 140.509 289.34 138.245 283.577 135.052C298.981 86.8401 309.46 88.7195 312.772 95.6856Z" fill="#286EDC"/>
<path d="M206.946 103.726C208.638 104.891 209.992 107.151 201.87 106.872C200.89 106.872 200.411 107.804 200.294 108.27M199.594 90.0918C200.703 90.791 202.15 92.469 199.069 93.5876L199.594 90.0918ZM187.865 94.4616C188.682 92.8885 192.067 90.5113 199.069 93.5876L187.865 94.4616ZM190.316 99.3557C196.442 96.2095 203.62 98.4818 206.071 99.3557H190.316ZM192.767 105.299C196.793 100.754 201.17 101.628 206.946 103.726L192.767 105.299ZM199.069 93.5876C207.821 97.433 208.522 98.8314 206.071 99.3557L199.069 93.5876ZM206.071 99.3557C207.063 100.113 208.627 102.048 206.946 103.726L206.071 99.3557Z" stroke="#E9B0A1"/>
<path d="M296.881 81.7024C305.283 76.1091 317.712 73.662 323.663 73.3124C320.513 82.7511 351.321 79.6049 359.723 71.9141C372.327 75.5847 376.003 78.0318 384.055 83.4503C384.055 85.5478 367.951 132.392 370.051 147.424C371.693 159.165 379.455 176.023 383.88 192.171C382.48 194.093 381.429 195.492 378.454 198.638C358.208 194.023 310.36 209.999 302.133 198.813C304.349 191.471 308.364 171.755 301.082 151.619C291.98 126.449 293.555 111.417 296.881 81.7024Z" fill="#0071DC"/>
<path d="M384.058 83.4512C384.058 85.5487 367.953 132.393 370.054 147.425C371.419 157.182 376.912 170.475 381.271 183.956C369.795 184.935 325.591 174.459 304.925 169.099C304.411 163.517 303.245 157.587 301.085 151.62C298.889 145.554 297.318 140.076 296.239 134.84C318.526 130.82 312.113 158.611 316.489 158.611C370.404 156.164 366.203 151.62 366.203 147.425C366.203 143.23 355 147.425 355 142.88C351.218 105.685 372.795 87.7629 384.058 83.4512Z" fill="#286EDC"/>
<path d="M280.609 129.663C280.338 128.561 281.173 127.498 282.309 127.498H302.798C303.603 127.498 304.307 128.048 304.499 128.829L314.904 171.129C315.174 172.23 314.34 173.293 313.203 173.293H292.714C291.908 173.293 291.206 172.744 291.014 171.963L280.609 129.663Z" fill="#3E388F"/>
<path d="M398.41 139.383C400.51 151.619 402.121 169.21 398.41 177.663C392.808 190.423 329.791 174.516 318.238 171.544C314.387 170.495 302.308 168.398 298.457 163.329C296.731 161.057 296.532 159.134 293.556 158.085C290.58 157.036 285.897 154.981 286.554 153.016C286.904 151.968 291.28 153.016 291.28 153.016C291.28 153.016 290.23 151.793 288.129 151.268C286.601 150.887 284.628 149.87 284.103 147.423C283.742 145.74 288.304 148.472 289.53 148.122C290.755 147.773 283.394 146.756 282.003 143.053C281.42 141.501 283.753 140.257 283.753 142.115C284.947 142.294 286.34 142.424 287.079 142.487C285.953 142.342 283.278 141.7 281.652 138.858C280.777 137.46 282.527 136.236 283.053 137.91C284.223 138.198 285.548 138.732 286.554 138.509C288.129 138.16 296.006 139.209 303.183 146.2C304.979 147.948 307.21 145.501 306.684 136.937C312.986 140.608 310.536 147.073 312.111 153.366C312.853 156.337 313.847 159.34 315.262 160.008C318.588 161.581 365.326 156.512 367.251 156.337C368.792 156.197 367.892 146.957 367.251 140.606L398.41 139.383Z" fill="#FECFC3"/>
<path d="M287.254 142.529C288.654 143.345 291.945 145.011 293.906 145.151" stroke="#E9B0A1"/>
<path d="M289.354 147.948C290.055 148.356 291.805 149.172 293.206 149.172" stroke="#E9B0A1"/>
<path d="M398.411 139.384L367.252 140.607C367.466 142.708 367.704 145.125 367.875 147.424C373.008 148.88 386.539 150.92 399.594 147.424C399.247 144.603 398.838 141.882 398.411 139.384Z" fill="#E9B0A1"/>
<path d="M408.387 139.557C404.886 99.1804 389.832 86.7702 383.705 83.2744C357.273 88.3434 355.347 131.517 357.973 140.781C364.625 143.577 389.307 148.996 408.387 139.557Z" fill="#0071DC"/>
<path d="M357.974 140.782C364.626 143.579 389.308 148.997 408.388 139.558C408.332 138.911 408.272 138.27 408.209 137.636C388.324 144.907 366.054 140.666 357.403 137.636C357.55 138.91 357.746 139.975 357.974 140.782Z" fill="#0666C1"/>
<path d="M14.2125 317.958H18.6765V330H20.8905V317.958H25.3725V315.906H14.2125V317.958ZM35.7974 330V324.078C35.7974 321.774 34.5554 320.19 32.1974 320.19C31.0274 320.19 30.0554 320.658 29.3174 321.612V315.348H27.1754V330H29.3174V324.654C29.3174 323.196 30.1814 322.224 31.5314 322.224C32.9534 322.224 33.6554 323.178 33.6554 324.618V330H35.7974ZM47.404 325.824C47.422 325.662 47.44 325.446 47.44 325.158C47.44 323.664 47.026 322.476 46.198 321.558C45.37 320.64 44.218 320.19 42.76 320.19C41.374 320.19 40.222 320.676 39.304 321.648C38.386 322.62 37.918 323.79 37.918 325.176C37.918 326.598 38.404 327.804 39.358 328.758C40.33 329.712 41.536 330.18 42.958 330.18C44.686 330.18 46.252 329.352 47.062 327.858L45.514 326.832C44.992 327.822 44.128 328.326 42.922 328.326C42.184 328.326 41.536 328.092 40.978 327.624C40.42 327.138 40.132 326.544 40.114 325.824H47.404ZM42.76 322.026C44.128 322.026 45.19 322.854 45.262 324.204H40.222C40.42 322.89 41.446 322.026 42.76 322.026ZM64.4123 325.158C64.4123 323.88 63.9803 322.728 63.0983 321.72C62.2343 320.712 61.1003 320.208 59.6963 320.208C59.1383 320.208 58.5443 320.352 57.9143 320.64C57.2843 320.91 56.8343 321.306 56.5283 321.81V315.348H54.3863V330H56.4743V328.524C56.7803 329.028 57.2483 329.424 57.8783 329.712C58.5083 330 59.1023 330.144 59.6423 330.144C61.0283 330.144 62.1623 329.658 63.0623 328.668C63.9623 327.678 64.4123 326.508 64.4123 325.158ZM57.2843 323.016C57.8243 322.422 58.5263 322.134 59.3723 322.134C60.2183 322.134 60.9203 322.422 61.4423 323.016C61.9823 323.61 62.2523 324.33 62.2523 325.176C62.2523 326.022 61.9823 326.742 61.4423 327.336C60.9203 327.912 60.2183 328.2 59.3723 328.2C58.5263 328.2 57.8243 327.912 57.2843 327.336C56.7623 326.742 56.4923 326.022 56.4923 325.176C56.4923 324.33 56.7623 323.61 57.2843 323.016ZM75.4762 325.824C75.4942 325.662 75.5122 325.446 75.5122 325.158C75.5122 323.664 75.0982 322.476 74.2702 321.558C73.4422 320.64 72.2902 320.19 70.8322 320.19C69.4462 320.19 68.2942 320.676 67.3762 321.648C66.4582 322.62 65.9902 323.79 65.9902 325.176C65.9902 326.598 66.4762 327.804 67.4302 328.758C68.4022 329.712 69.6082 330.18 71.0302 330.18C72.7582 330.18 74.3242 329.352 75.1342 327.858L73.5862 326.832C73.0642 327.822 72.2002 328.326 70.9942 328.326C70.2562 328.326 69.6082 328.092 69.0502 327.624C68.4922 327.138 68.2042 326.544 68.1862 325.824H75.4762ZM70.8322 322.026C72.2002 322.026 73.2622 322.854 73.3342 324.204H68.2942C68.4922 322.89 69.5182 322.026 70.8322 322.026ZM80.8265 330.162C81.9065 330.162 82.7885 329.892 83.4545 329.334C84.1205 328.776 84.4625 328.056 84.4625 327.174C84.4625 325.68 83.3105 324.636 81.1325 324.15C79.8905 323.88 79.3505 323.556 79.3505 322.926C79.3505 322.404 80.0345 321.99 80.7005 321.99C81.6185 321.99 82.2845 322.422 82.7165 323.286L84.3725 322.35C83.7065 320.91 82.5005 320.19 80.7725 320.19C79.8365 320.19 79.0265 320.46 78.3245 321.018C77.6225 321.576 77.2805 322.278 77.2805 323.142C77.2805 323.826 77.5145 324.402 77.9645 324.888C78.4865 325.446 79.2965 325.824 80.3585 326.04C81.6725 326.31 82.3385 326.742 82.3385 327.3C82.3385 327.948 81.6365 328.362 80.8265 328.362C79.8005 328.362 79.0445 327.84 78.5225 326.814L76.8485 327.75C77.5865 329.352 78.9185 330.162 80.8265 330.162ZM91.845 322.314V320.388H89.487V317.418H87.345V320.388H85.581V322.314H87.345V326.904C87.345 328.992 88.569 330.108 90.675 330.108C91.089 330.108 91.485 330.036 91.827 329.91V328.092C91.593 328.146 91.359 328.164 91.143 328.164C90.045 328.164 89.487 327.714 89.487 326.562V322.314H91.845ZM103.269 320.19C101.865 320.19 100.659 320.676 99.6694 321.63C98.6794 322.584 98.1754 323.772 98.1754 325.176C98.1754 326.58 98.6614 327.768 99.6514 328.722C100.641 329.676 101.847 330.162 103.251 330.162C104.673 330.162 105.861 329.676 106.833 328.722C107.823 327.75 108.309 326.562 108.309 325.14C108.309 323.736 107.823 322.566 106.833 321.612C105.843 320.658 104.655 320.19 103.269 320.19ZM101.163 323.016C101.703 322.422 102.405 322.134 103.251 322.134C104.097 322.134 104.799 322.422 105.321 323.016C105.861 323.61 106.131 324.33 106.131 325.176C106.131 326.022 105.861 326.742 105.339 327.336C104.817 327.93 104.115 328.218 103.269 328.218C102.423 328.218 101.721 327.912 101.181 327.318C100.641 326.706 100.371 325.986 100.371 325.14C100.371 324.294 100.641 323.592 101.163 323.016ZM115.97 315.438C115.628 315.348 115.304 315.294 114.98 315.294C112.622 315.294 111.2 316.662 111.2 319.038V320.388H109.436V322.278H111.2V330H113.36V322.278H115.916V320.388H113.36V319.11C113.36 317.832 113.972 317.202 115.196 317.202C115.502 317.202 115.754 317.22 115.97 317.274V315.438ZM122.027 330H124.169V315.348H122.027V330ZM126.929 320.388V326.292C126.929 328.596 128.207 330.198 130.529 330.198C131.753 330.198 132.725 329.694 133.463 328.704V330H135.551V320.388H133.409V325.734C133.409 327.192 132.545 328.164 131.195 328.164C129.773 328.164 129.071 327.21 129.071 325.77V320.388H126.929ZM137.239 330H139.687L142.099 326.652L144.529 330H146.995L143.359 325.104L146.869 320.388H144.457L142.135 323.574L139.831 320.388H137.365L140.893 325.14L137.239 330ZM148.585 320.388V326.292C148.585 328.596 149.863 330.198 152.185 330.198C153.409 330.198 154.381 329.694 155.119 328.704V330H157.207V320.388H155.065V325.734C155.065 327.192 154.201 328.164 152.851 328.164C151.429 328.164 150.727 327.21 150.727 325.77V320.388H148.585ZM165.34 320.352C165.214 320.316 165.052 320.298 164.818 320.298C163.648 320.298 162.766 320.838 162.172 321.918V320.388H160.084V330H162.226V325.122C162.226 323.448 163.09 322.494 164.728 322.494C164.962 322.494 165.16 322.512 165.34 322.548V320.352ZM168.446 320.388H165.998L170.282 328.92L167.636 334.734H169.922L176.528 320.388H174.206L171.434 326.688L168.446 320.388ZM192.557 325.158C192.557 323.88 192.125 322.728 191.243 321.72C190.379 320.712 189.245 320.208 187.841 320.208C187.283 320.208 186.689 320.352 186.059 320.64C185.429 320.91 184.979 321.306 184.673 321.81V315.348H182.531V330H184.619V328.524C184.925 329.028 185.393 329.424 186.023 329.712C186.653 330 187.247 330.144 187.787 330.144C189.173 330.144 190.307 329.658 191.207 328.668C192.107 327.678 192.557 326.508 192.557 325.158ZM185.429 323.016C185.969 322.422 186.671 322.134 187.517 322.134C188.363 322.134 189.065 322.422 189.587 323.016C190.127 323.61 190.397 324.33 190.397 325.176C190.397 326.022 190.127 326.742 189.587 327.336C189.065 327.912 188.363 328.2 187.517 328.2C186.671 328.2 185.969 327.912 185.429 327.336C184.907 326.742 184.637 326.022 184.637 325.176C184.637 324.33 184.907 323.61 185.429 323.016ZM200.039 320.352C199.913 320.316 199.751 320.298 199.517 320.298C198.347 320.298 197.465 320.838 196.871 321.918V320.388H194.783V330H196.925V325.122C196.925 323.448 197.789 322.494 199.427 322.494C199.661 322.494 199.859 322.512 200.039 322.548V320.352ZM207.163 323.484C207.163 324.024 206.857 324.294 206.263 324.294H205.075C203.383 324.294 201.079 324.996 201.079 327.228V327.336C201.079 328.164 201.385 328.848 201.997 329.37C202.609 329.892 203.383 330.162 204.319 330.162C205.615 330.162 206.551 329.676 207.145 328.686V330H209.251V323.88C209.251 323.214 209.143 322.638 208.927 322.152C208.333 320.838 207.127 320.19 205.327 320.19C203.365 320.19 201.997 321 201.241 322.638L202.879 323.574C203.365 322.548 204.175 322.044 205.273 322.044C206.479 322.044 207.163 322.692 207.163 323.484ZM207.145 326.112C207.145 327.552 206.209 328.452 204.751 328.452C203.833 328.452 203.221 327.93 203.221 327.138C203.221 326.724 203.419 326.4 203.797 326.166C204.193 325.932 204.625 325.806 205.075 325.806H207.145V326.112ZM220.649 330V324.078C220.649 321.774 219.407 320.19 217.049 320.19C215.825 320.19 214.853 320.694 214.115 321.684V320.388H212.027V330H214.169V324.654C214.169 323.196 215.033 322.224 216.383 322.224C217.805 322.224 218.507 323.178 218.507 324.618V330H220.649ZM222.752 325.176C222.752 326.508 223.202 327.678 224.102 328.668C225.002 329.658 226.136 330.144 227.486 330.144C227.99 330.144 228.566 330.018 229.214 329.748C229.88 329.478 230.366 329.064 230.708 328.506V330H232.796V315.348H230.654V321.756C230.33 321.234 229.862 320.856 229.232 320.604C228.62 320.334 228.062 320.208 227.54 320.208C226.118 320.208 224.948 320.712 224.066 321.72C223.184 322.728 222.752 323.88 222.752 325.176ZM227.81 322.134C228.656 322.134 229.34 322.422 229.88 323.016C230.42 323.61 230.69 324.33 230.69 325.176C230.69 326.022 230.42 326.742 229.88 327.336C229.358 327.912 228.656 328.2 227.81 328.2C226.964 328.2 226.262 327.912 225.722 327.336C225.2 326.742 224.93 326.022 224.93 325.176C224.93 324.33 225.2 323.61 225.722 323.016C226.262 322.422 226.964 322.134 227.81 322.134ZM239.282 320.388L243.35 330H245.492L249.506 320.388H247.256L244.43 327.498L241.604 320.388H239.282ZM256.365 323.484C256.365 324.024 256.059 324.294 255.465 324.294H254.277C252.585 324.294 250.281 324.996 250.281 327.228V327.336C250.281 328.164 250.587 328.848 251.199 329.37C251.811 329.892 252.585 330.162 253.521 330.162C254.817 330.162 255.753 329.676 256.347 328.686V330H258.453V323.88C258.453 323.214 258.345 322.638 258.129 322.152C257.535 320.838 256.329 320.19 254.529 320.19C252.567 320.19 251.199 321 250.443 322.638L252.081 323.574C252.567 322.548 253.377 322.044 254.475 322.044C255.681 322.044 256.365 322.692 256.365 323.484ZM256.347 326.112C256.347 327.552 255.411 328.452 253.953 328.452C253.035 328.452 252.423 327.93 252.423 327.138C252.423 326.724 252.621 326.4 252.999 326.166C253.395 325.932 253.827 325.806 254.277 325.806H256.347V326.112ZM261.228 330H263.37V315.348H261.228V330ZM266.13 320.388V326.292C266.13 328.596 267.408 330.198 269.73 330.198C270.954 330.198 271.926 329.694 272.664 328.704V330H274.752V320.388H272.61V325.734C272.61 327.192 271.746 328.164 270.396 328.164C268.974 328.164 268.272 327.21 268.272 325.77V320.388H266.13ZM286.466 325.824C286.484 325.662 286.502 325.446 286.502 325.158C286.502 323.664 286.088 322.476 285.26 321.558C284.432 320.64 283.28 320.19 281.822 320.19C280.436 320.19 279.284 320.676 278.366 321.648C277.448 322.62 276.98 323.79 276.98 325.176C276.98 326.598 277.466 327.804 278.42 328.758C279.392 329.712 280.598 330.18 282.02 330.18C283.748 330.18 285.314 329.352 286.124 327.858L284.576 326.832C284.054 327.822 283.19 328.326 281.984 328.326C281.246 328.326 280.598 328.092 280.04 327.624C279.482 327.138 279.194 326.544 279.176 325.824H286.466ZM281.822 322.026C283.19 322.026 284.252 322.854 284.324 324.204H279.284C279.482 322.89 280.508 322.026 281.822 322.026ZM291.817 330.162C292.897 330.162 293.779 329.892 294.445 329.334C295.111 328.776 295.453 328.056 295.453 327.174C295.453 325.68 294.301 324.636 292.123 324.15C290.881 323.88 290.341 323.556 290.341 322.926C290.341 322.404 291.025 321.99 291.691 321.99C292.609 321.99 293.275 322.422 293.707 323.286L295.363 322.35C294.697 320.91 293.491 320.19 291.763 320.19C290.827 320.19 290.017 320.46 289.315 321.018C288.613 321.576 288.271 322.278 288.271 323.142C288.271 323.826 288.505 324.402 288.955 324.888C289.477 325.446 290.287 325.824 291.349 326.04C292.663 326.31 293.329 326.742 293.329 327.3C293.329 327.948 292.627 328.362 291.817 328.362C290.791 328.362 290.035 327.84 289.513 326.814L287.839 327.75C288.577 329.352 289.909 330.162 291.817 330.162ZM298.53 332.916C299.844 331.98 300.708 330.522 300.708 329.082V328.992C300.708 327.786 299.97 326.94 299.034 326.94C298.08 326.94 297.414 327.624 297.414 328.506C297.414 329.352 298.062 329.982 298.8 329.982C298.998 329.982 299.178 329.946 299.34 329.874C298.962 330.756 298.368 331.494 297.558 332.052L298.53 332.916ZM315.448 330V324.078C315.448 321.774 314.206 320.19 311.848 320.19C310.678 320.19 309.706 320.658 308.968 321.612V315.348H306.826V330H308.968V324.654C308.968 323.196 309.832 322.224 311.182 322.224C312.604 322.224 313.306 323.178 313.306 324.618V330H315.448ZM318.288 318.264C318.846 318.822 319.71 318.822 320.268 318.264C320.826 317.706 320.826 316.842 320.268 316.284C319.71 315.708 318.846 315.708 318.288 316.284C317.73 316.842 317.73 317.706 318.288 318.264ZM320.358 320.388H318.216V330H320.358V320.388ZM327.24 330.072C327.744 330.072 328.302 329.946 328.932 329.676C329.562 329.406 330.048 329.01 330.39 328.452V329.964C330.39 331.89 329.148 332.898 327.474 332.898C326.124 332.898 325.116 332.214 324.45 330.864L322.668 331.89C323.55 333.834 325.17 334.806 327.51 334.806C329.022 334.806 330.228 334.356 331.146 333.474C332.064 332.592 332.532 331.386 332.532 329.874V320.388H330.444V321.846C330.102 321.306 329.616 320.91 329.004 320.64C328.392 320.37 327.834 320.226 327.312 320.226C325.89 320.226 324.738 320.73 323.856 321.738C322.992 322.746 322.56 323.88 322.56 325.158C322.56 326.49 322.992 327.642 323.874 328.614C324.756 329.586 325.89 330.072 327.24 330.072ZM330.426 325.122C330.426 325.968 330.156 326.688 329.616 327.282C329.094 327.858 328.41 328.146 327.564 328.146C326.718 328.146 326.034 327.858 325.494 327.282C324.972 326.688 324.702 325.968 324.702 325.122C324.702 324.276 324.972 323.556 325.494 322.998C326.016 322.422 326.718 322.134 327.564 322.134C328.41 322.134 329.112 322.422 329.634 322.998C330.156 323.574 330.426 324.276 330.426 325.122ZM344.03 330V324.078C344.03 321.774 342.788 320.19 340.43 320.19C339.26 320.19 338.288 320.658 337.55 321.612V315.348H335.408V330H337.55V324.654C337.55 323.196 338.414 322.224 339.764 322.224C341.186 322.224 341.888 323.178 341.888 324.618V330H344.03ZM350.878 325.176C350.878 326.508 351.328 327.678 352.228 328.668C353.128 329.658 354.262 330.144 355.612 330.144C356.116 330.144 356.674 330.018 357.304 329.766C357.934 329.496 358.438 329.1 358.78 328.56V334.734H360.922V320.388H358.834V321.81C358.474 321.27 357.988 320.874 357.358 320.604C356.746 320.334 356.188 320.208 355.666 320.208C354.244 320.208 353.074 320.712 352.192 321.72C351.31 322.728 350.878 323.88 350.878 325.176ZM355.936 322.134C356.782 322.134 357.466 322.422 358.006 323.016C358.546 323.61 358.816 324.33 358.816 325.176C358.816 326.022 358.546 326.742 358.006 327.336C357.484 327.912 356.782 328.2 355.936 328.2C355.09 328.2 354.388 327.912 353.848 327.336C353.326 326.742 353.056 326.022 353.056 325.176C353.056 324.33 353.326 323.61 353.848 323.016C354.388 322.422 355.09 322.134 355.936 322.134ZM363.688 320.388V326.292C363.688 328.596 364.966 330.198 367.288 330.198C368.512 330.198 369.484 329.694 370.222 328.704V330H372.31V320.388H370.168V325.734C370.168 327.192 369.304 328.164 367.954 328.164C366.532 328.164 365.83 327.21 365.83 325.77V320.388H363.688ZM380.677 323.484C380.677 324.024 380.371 324.294 379.777 324.294H378.589C376.897 324.294 374.593 324.996 374.593 327.228V327.336C374.593 328.164 374.899 328.848 375.511 329.37C376.123 329.892 376.897 330.162 377.833 330.162C379.129 330.162 380.065 329.676 380.659 328.686V330H382.765V323.88C382.765 323.214 382.657 322.638 382.441 322.152C381.847 320.838 380.641 320.19 378.841 320.19C376.879 320.19 375.511 321 374.755 322.638L376.393 323.574C376.879 322.548 377.689 322.044 378.787 322.044C379.993 322.044 380.677 322.692 380.677 323.484ZM380.659 326.112C380.659 327.552 379.723 328.452 378.265 328.452C377.347 328.452 376.735 327.93 376.735 327.138C376.735 326.724 376.933 326.4 377.311 326.166C377.707 325.932 378.139 325.806 378.589 325.806H380.659V326.112ZM385.541 330H387.683V315.348H385.541V330ZM390.622 318.264C391.18 318.822 392.044 318.822 392.602 318.264C393.16 317.706 393.16 316.842 392.602 316.284C392.044 315.708 391.18 315.708 390.622 316.284C390.064 316.842 390.064 317.706 390.622 318.264ZM392.692 320.388H390.55V330H392.692V320.388ZM400.798 322.314V320.388H398.44V317.418H396.298V320.388H394.534V322.314H396.298V326.904C396.298 328.992 397.522 330.108 399.628 330.108C400.042 330.108 400.438 330.036 400.78 329.91V328.092C400.546 328.146 400.312 328.164 400.096 328.164C398.998 328.164 398.44 327.714 398.44 326.562V322.314H400.798ZM404.344 320.388H401.896L406.18 328.92L403.534 334.734H405.82L412.426 320.388H410.104L407.332 326.688L404.344 320.388ZM71.3205 351.158C71.3205 349.88 70.8885 348.728 70.0065 347.72C69.1425 346.712 68.0085 346.208 66.6045 346.208C66.0645 346.208 65.4885 346.334 64.8585 346.604C64.2285 346.874 63.7425 347.288 63.3825 347.882V346.388H61.2945V360.734H63.4365V354.596C63.7785 355.118 64.2465 355.496 64.8765 355.766C65.5065 356.018 66.0645 356.144 66.5505 356.144C67.9365 356.144 69.0705 355.658 69.9705 354.668C70.8705 353.678 71.3205 352.508 71.3205 351.158ZM64.1925 349.016C64.7325 348.422 65.4345 348.134 66.2805 348.134C67.1265 348.134 67.8285 348.422 68.3505 349.016C68.8905 349.61 69.1605 350.33 69.1605 351.176C69.1605 352.022 68.8905 352.742 68.3505 353.336C67.8285 353.912 67.1265 354.2 66.2805 354.2C65.4345 354.2 64.7325 353.912 64.1925 353.336C63.6705 352.742 63.4005 352.022 63.4005 351.176C63.4005 350.33 63.6705 349.61 64.1925 349.016ZM78.8024 346.352C78.6764 346.316 78.5144 346.298 78.2804 346.298C77.1104 346.298 76.2284 346.838 75.6344 347.918V346.388H73.5464V356H75.6884V351.122C75.6884 349.448 76.5524 348.494 78.1904 348.494C78.4244 348.494 78.6224 348.512 78.8024 348.548V346.352ZM84.8299 346.19C83.4259 346.19 82.2199 346.676 81.2299 347.63C80.2399 348.584 79.7359 349.772 79.7359 351.176C79.7359 352.58 80.2219 353.768 81.2119 354.722C82.2019 355.676 83.4079 356.162 84.8119 356.162C86.2339 356.162 87.4219 355.676 88.3939 354.722C89.3839 353.75 89.8699 352.562 89.8699 351.14C89.8699 349.736 89.3839 348.566 88.3939 347.612C87.4039 346.658 86.2159 346.19 84.8299 346.19ZM82.7239 349.016C83.2639 348.422 83.9659 348.134 84.8119 348.134C85.6579 348.134 86.3599 348.422 86.8819 349.016C87.4219 349.61 87.6919 350.33 87.6919 351.176C87.6919 352.022 87.4219 352.742 86.8999 353.336C86.3779 353.93 85.6759 354.218 84.8299 354.218C83.9839 354.218 83.2819 353.912 82.7419 353.318C82.2019 352.706 81.9319 351.986 81.9319 351.14C81.9319 350.294 82.2019 349.592 82.7239 349.016ZM91.4429 351.176C91.4429 352.508 91.8929 353.678 92.7929 354.668C93.6929 355.658 94.8269 356.144 96.1769 356.144C96.6809 356.144 97.2569 356.018 97.9049 355.748C98.5709 355.478 99.0569 355.064 99.3989 354.506V356H101.487V341.348H99.3449V347.756C99.0209 347.234 98.5529 346.856 97.9229 346.604C97.3109 346.334 96.7529 346.208 96.2309 346.208C94.8089 346.208 93.6389 346.712 92.7569 347.72C91.8749 348.728 91.4429 349.88 91.4429 351.176ZM96.5009 348.134C97.3469 348.134 98.0309 348.422 98.5709 349.016C99.1109 349.61 99.3809 350.33 99.3809 351.176C99.3809 352.022 99.1109 352.742 98.5709 353.336C98.0489 353.912 97.3469 354.2 96.5009 354.2C95.6549 354.2 94.9529 353.912 94.4129 353.336C93.8909 352.742 93.6209 352.022 93.6209 351.176C93.6209 350.33 93.8909 349.61 94.4129 349.016C94.9529 348.422 95.6549 348.134 96.5009 348.134ZM104.253 346.388V352.292C104.253 354.596 105.531 356.198 107.853 356.198C109.077 356.198 110.049 355.694 110.787 354.704V356H112.875V346.388H110.733V351.734C110.733 353.192 109.869 354.164 108.519 354.164C107.097 354.164 106.395 353.21 106.395 351.77V346.388H104.253ZM120.108 356.162C121.278 356.162 122.232 355.874 122.97 355.298C123.708 354.722 124.23 354.038 124.5 353.264L122.628 352.436C122.178 353.624 121.35 354.218 120.144 354.218C119.334 354.218 118.65 353.93 118.11 353.354C117.57 352.778 117.3 352.04 117.3 351.14C117.3 350.258 117.57 349.538 118.11 348.98C118.668 348.422 119.334 348.134 120.126 348.134C121.35 348.134 122.178 348.728 122.592 349.898L124.428 349.07C123.852 347.36 122.268 346.19 120.108 346.19C118.686 346.19 117.498 346.676 116.544 347.666C115.59 348.656 115.104 349.826 115.104 351.176C115.104 352.598 115.59 353.786 116.544 354.74C117.498 355.694 118.686 356.162 120.108 356.162ZM131.8 348.314V346.388H129.442V343.418H127.3V346.388H125.536V348.314H127.3V352.904C127.3 354.992 128.524 356.108 130.63 356.108C131.044 356.108 131.44 356.036 131.782 355.91V354.092C131.548 354.146 131.314 354.164 131.098 354.164C130 354.164 129.442 353.714 129.442 352.562V348.314H131.8ZM137.164 356.162C138.244 356.162 139.126 355.892 139.792 355.334C140.458 354.776 140.8 354.056 140.8 353.174C140.8 351.68 139.648 350.636 137.47 350.15C136.228 349.88 135.688 349.556 135.688 348.926C135.688 348.404 136.372 347.99 137.038 347.99C137.956 347.99 138.622 348.422 139.054 349.286L140.71 348.35C140.044 346.91 138.838 346.19 137.11 346.19C136.174 346.19 135.364 346.46 134.662 347.018C133.96 347.576 133.618 348.278 133.618 349.142C133.618 349.826 133.852 350.402 134.302 350.888C134.824 351.446 135.634 351.824 136.696 352.04C138.01 352.31 138.676 352.742 138.676 353.3C138.676 353.948 137.974 354.362 137.164 354.362C136.138 354.362 135.382 353.84 134.86 352.814L133.186 353.75C133.924 355.352 135.256 356.162 137.164 356.162ZM143.878 358.916C145.192 357.98 146.056 356.522 146.056 355.082V354.992C146.056 353.786 145.318 352.94 144.382 352.94C143.428 352.94 142.762 353.624 142.762 354.506C142.762 355.352 143.41 355.982 144.148 355.982C144.346 355.982 144.526 355.946 144.688 355.874C144.31 356.756 143.716 357.494 142.906 358.052L143.878 358.916ZM157.663 349.484C157.663 350.024 157.357 350.294 156.763 350.294H155.575C153.883 350.294 151.579 350.996 151.579 353.228V353.336C151.579 354.164 151.885 354.848 152.497 355.37C153.109 355.892 153.883 356.162 154.819 356.162C156.115 356.162 157.051 355.676 157.645 354.686V356H159.751V349.88C159.751 349.214 159.643 348.638 159.427 348.152C158.833 346.838 157.627 346.19 155.827 346.19C153.865 346.19 152.497 347 151.741 348.638L153.379 349.574C153.865 348.548 154.675 348.044 155.773 348.044C156.979 348.044 157.663 348.692 157.663 349.484ZM157.645 352.112C157.645 353.552 156.709 354.452 155.251 354.452C154.333 354.452 153.721 353.93 153.721 353.138C153.721 352.724 153.919 352.4 154.297 352.166C154.693 351.932 155.125 351.806 155.575 351.806H157.645V352.112ZM171.149 356V350.078C171.149 347.774 169.907 346.19 167.549 346.19C166.325 346.19 165.353 346.694 164.615 347.684V346.388H162.527V356H164.669V350.654C164.669 349.196 165.533 348.224 166.883 348.224C168.305 348.224 169.007 349.178 169.007 350.618V356H171.149ZM173.252 351.176C173.252 352.508 173.702 353.678 174.602 354.668C175.502 355.658 176.636 356.144 177.986 356.144C178.49 356.144 179.066 356.018 179.714 355.748C180.38 355.478 180.866 355.064 181.208 354.506V356H183.296V341.348H181.154V347.756C180.83 347.234 180.362 346.856 179.732 346.604C179.12 346.334 178.562 346.208 178.04 346.208C176.618 346.208 175.448 346.712 174.566 347.72C173.684 348.728 173.252 349.88 173.252 351.176ZM178.31 348.134C179.156 348.134 179.84 348.422 180.38 349.016C180.92 349.61 181.19 350.33 181.19 351.176C181.19 352.022 180.92 352.742 180.38 353.336C179.858 353.912 179.156 354.2 178.31 354.2C177.464 354.2 176.762 353.912 176.222 353.336C175.7 352.742 175.43 352.022 175.43 351.176C175.43 350.33 175.7 349.61 176.222 349.016C176.762 348.422 177.464 348.134 178.31 348.134ZM190.988 344.264C191.546 344.822 192.41 344.822 192.968 344.264C193.526 343.706 193.526 342.842 192.968 342.284C192.41 341.708 191.546 341.708 190.988 342.284C190.43 342.842 190.43 343.706 190.988 344.264ZM193.058 346.388H190.916V356H193.058V346.388ZM204.547 356V350.078C204.547 347.774 203.305 346.19 200.947 346.19C199.723 346.19 198.751 346.694 198.013 347.684V346.388H195.925V356H198.067V350.654C198.067 349.196 198.931 348.224 200.281 348.224C201.703 348.224 202.405 349.178 202.405 350.618V356H204.547ZM215.938 356V350.078C215.938 347.774 214.696 346.19 212.338 346.19C211.114 346.19 210.142 346.694 209.404 347.684V346.388H207.316V356H209.458V350.654C209.458 349.196 210.322 348.224 211.672 348.224C213.094 348.224 213.796 349.178 213.796 350.618V356H215.938ZM223.135 346.19C221.731 346.19 220.525 346.676 219.535 347.63C218.545 348.584 218.041 349.772 218.041 351.176C218.041 352.58 218.527 353.768 219.517 354.722C220.507 355.676 221.713 356.162 223.117 356.162C224.539 356.162 225.727 355.676 226.699 354.722C227.689 353.75 228.175 352.562 228.175 351.14C228.175 349.736 227.689 348.566 226.699 347.612C225.709 346.658 224.521 346.19 223.135 346.19ZM221.029 349.016C221.569 348.422 222.271 348.134 223.117 348.134C223.963 348.134 224.665 348.422 225.187 349.016C225.727 349.61 225.997 350.33 225.997 351.176C225.997 352.022 225.727 352.742 225.205 353.336C224.683 353.93 223.981 354.218 223.135 354.218C222.289 354.218 221.587 353.912 221.047 353.318C220.507 352.706 220.237 351.986 220.237 351.14C220.237 350.294 220.507 349.592 221.029 349.016ZM228.928 346.388L232.996 356H235.138L239.152 346.388H236.902L234.076 353.498L231.25 346.388H228.928ZM246.011 349.484C246.011 350.024 245.705 350.294 245.111 350.294H243.923C242.231 350.294 239.927 350.996 239.927 353.228V353.336C239.927 354.164 240.233 354.848 240.845 355.37C241.457 355.892 242.231 356.162 243.167 356.162C244.463 356.162 245.399 355.676 245.993 354.686V356H248.099V349.88C248.099 349.214 247.991 348.638 247.775 348.152C247.181 346.838 245.975 346.19 244.175 346.19C242.213 346.19 240.845 347 240.089 348.638L241.727 349.574C242.213 348.548 243.023 348.044 244.121 348.044C245.327 348.044 246.011 348.692 246.011 349.484ZM245.993 352.112C245.993 353.552 245.057 354.452 243.599 354.452C242.681 354.452 242.069 353.93 242.069 353.138C242.069 352.724 242.267 352.4 242.645 352.166C243.041 351.932 243.473 351.806 243.923 351.806H245.993V352.112ZM256.025 348.314V346.388H253.667V343.418H251.525V346.388H249.761V348.314H251.525V352.904C251.525 354.992 252.749 356.108 254.855 356.108C255.269 356.108 255.665 356.036 256.007 355.91V354.092C255.773 354.146 255.539 354.164 255.323 354.164C254.225 354.164 253.667 353.714 253.667 352.562V348.314H256.025ZM258.347 344.264C258.905 344.822 259.769 344.822 260.327 344.264C260.885 343.706 260.885 342.842 260.327 342.284C259.769 341.708 258.905 341.708 258.347 342.284C257.789 342.842 257.789 343.706 258.347 344.264ZM260.417 346.388H258.275V356H260.417V346.388ZM262.151 346.388L266.219 356H268.361L272.375 346.388H270.125L267.299 353.498L264.473 346.388H262.151ZM282.634 351.824C282.652 351.662 282.67 351.446 282.67 351.158C282.67 349.664 282.256 348.476 281.428 347.558C280.6 346.64 279.448 346.19 277.99 346.19C276.604 346.19 275.452 346.676 274.534 347.648C273.616 348.62 273.148 349.79 273.148 351.176C273.148 352.598 273.634 353.804 274.588 354.758C275.56 355.712 276.766 356.18 278.188 356.18C279.916 356.18 281.482 355.352 282.292 353.858L280.744 352.832C280.222 353.822 279.358 354.326 278.152 354.326C277.414 354.326 276.766 354.092 276.208 353.624C275.65 353.138 275.362 352.544 275.344 351.824H282.634ZM277.99 348.026C279.358 348.026 280.42 348.854 280.492 350.204H275.452C275.65 348.89 276.676 348.026 277.99 348.026ZM292.731 356.162C293.811 356.162 294.693 355.892 295.359 355.334C296.025 354.776 296.367 354.056 296.367 353.174C296.367 351.68 295.215 350.636 293.037 350.15C291.795 349.88 291.255 349.556 291.255 348.926C291.255 348.404 291.939 347.99 292.605 347.99C293.523 347.99 294.189 348.422 294.621 349.286L296.277 348.35C295.611 346.91 294.405 346.19 292.677 346.19C291.741 346.19 290.931 346.46 290.229 347.018C289.527 347.576 289.185 348.278 289.185 349.142C289.185 349.826 289.419 350.402 289.869 350.888C290.391 351.446 291.201 351.824 292.263 352.04C293.577 352.31 294.243 352.742 294.243 353.3C294.243 353.948 293.541 354.362 292.731 354.362C291.705 354.362 290.949 353.84 290.427 352.814L288.753 353.75C289.491 355.352 290.823 356.162 292.731 356.162ZM307.49 351.824C307.508 351.662 307.526 351.446 307.526 351.158C307.526 349.664 307.112 348.476 306.284 347.558C305.456 346.64 304.304 346.19 302.846 346.19C301.46 346.19 300.308 346.676 299.39 347.648C298.472 348.62 298.004 349.79 298.004 351.176C298.004 352.598 298.49 353.804 299.444 354.758C300.416 355.712 301.622 356.18 303.044 356.18C304.772 356.18 306.338 355.352 307.148 353.858L305.6 352.832C305.078 353.822 304.214 354.326 303.008 354.326C302.27 354.326 301.622 354.092 301.064 353.624C300.506 353.138 300.218 352.544 300.2 351.824H307.49ZM302.846 348.026C304.214 348.026 305.276 348.854 305.348 350.204H300.308C300.506 348.89 301.532 348.026 302.846 348.026ZM314.982 346.352C314.856 346.316 314.694 346.298 314.46 346.298C313.29 346.298 312.408 346.838 311.814 347.918V346.388H309.726V356H311.868V351.122C311.868 349.448 312.732 348.494 314.37 348.494C314.604 348.494 314.802 348.512 314.982 348.548V346.352ZM315.659 346.388L319.727 356H321.869L325.883 346.388H323.633L320.807 353.498L317.981 346.388H315.659ZM327.728 344.264C328.286 344.822 329.15 344.822 329.708 344.264C330.266 343.706 330.266 342.842 329.708 342.284C329.15 341.708 328.286 341.708 327.728 342.284C327.17 342.842 327.17 343.706 327.728 344.264ZM329.798 346.388H327.656V356H329.798V346.388ZM337.022 356.162C338.192 356.162 339.146 355.874 339.884 355.298C340.622 354.722 341.144 354.038 341.414 353.264L339.542 352.436C339.092 353.624 338.264 354.218 337.058 354.218C336.248 354.218 335.564 353.93 335.024 353.354C334.484 352.778 334.214 352.04 334.214 351.14C334.214 350.258 334.484 349.538 335.024 348.98C335.582 348.422 336.248 348.134 337.04 348.134C338.264 348.134 339.092 348.728 339.506 349.898L341.342 349.07C340.766 347.36 339.182 346.19 337.022 346.19C335.6 346.19 334.412 346.676 333.458 347.666C332.504 348.656 332.018 349.826 332.018 351.176C332.018 352.598 332.504 353.786 333.458 354.74C334.412 355.694 335.6 356.162 337.022 356.162ZM352.314 351.824C352.332 351.662 352.35 351.446 352.35 351.158C352.35 349.664 351.936 348.476 351.108 347.558C350.28 346.64 349.128 346.19 347.67 346.19C346.284 346.19 345.132 346.676 344.214 347.648C343.296 348.62 342.828 349.79 342.828 351.176C342.828 352.598 343.314 353.804 344.268 354.758C345.24 355.712 346.446 356.18 347.868 356.18C349.596 356.18 351.162 355.352 351.972 353.858L350.424 352.832C349.902 353.822 349.038 354.326 347.832 354.326C347.094 354.326 346.446 354.092 345.888 353.624C345.33 353.138 345.042 352.544 345.024 351.824H352.314ZM347.67 348.026C349.038 348.026 350.1 348.854 350.172 350.204H345.132C345.33 348.89 346.356 348.026 347.67 348.026ZM357.664 356.162C358.744 356.162 359.626 355.892 360.292 355.334C360.958 354.776 361.3 354.056 361.3 353.174C361.3 351.68 360.148 350.636 357.97 350.15C356.728 349.88 356.188 349.556 356.188 348.926C356.188 348.404 356.872 347.99 357.538 347.99C358.456 347.99 359.122 348.422 359.554 349.286L361.21 348.35C360.544 346.91 359.338 346.19 357.61 346.19C356.674 346.19 355.864 346.46 355.162 347.018C354.46 347.576 354.118 348.278 354.118 349.142C354.118 349.826 354.352 350.402 354.802 350.888C355.324 351.446 356.134 351.824 357.196 352.04C358.51 352.31 359.176 352.742 359.176 353.3C359.176 353.948 358.474 354.362 357.664 354.362C356.638 354.362 355.882 353.84 355.36 352.814L353.686 353.75C354.424 355.352 355.756 356.162 357.664 356.162Z" fill="#1A162E"/>
</svg>
